<svg width="250" height="61" viewBox="0 0 250 61" fill="none" xmlns="http://www.w3.org/2000/svg">
<g clip-path="url(#clip0_297_478)">
<path d="M65.7 21.6196H91.0134V26.3119H81.0602V52.6897H75.5871V26.3119H65.678V21.6196H65.7ZM89.932 30.193H94.6107V34.5344H94.699C94.8535 33.9205 95.1404 33.3285 95.5597 32.7584C95.979 32.1883 96.4866 31.6401 97.0825 31.1797C97.6783 30.6973 98.3404 30.3245 99.0687 30.0175C99.797 29.7325 100.547 29.579 101.298 29.579C101.871 29.579 102.291 29.6009 102.511 29.6229C102.732 29.6448 102.953 29.6886 103.196 29.7106V34.4906C102.843 34.4248 102.489 34.381 102.114 34.3371C101.739 34.2932 101.386 34.2713 101.033 34.2713C100.194 34.2713 99.3997 34.4467 98.6494 34.7756C97.899 35.1045 97.259 35.6088 96.7073 36.2447C96.1556 36.9025 95.7142 37.6919 95.3831 38.6567C95.0521 39.6214 94.8976 40.7178 94.8976 41.9676V52.6678H89.91V30.193H89.932ZM126.126 52.6897H121.226V49.5542H121.138C120.52 50.6944 119.615 51.5934 118.401 52.2731C117.188 52.9528 115.952 53.3037 114.694 53.3037C111.714 53.3037 109.552 52.5801 108.227 51.111C106.903 49.6419 106.241 47.4273 106.241 44.4672V30.193H111.229V43.9848C111.229 45.9582 111.604 47.3615 112.376 48.1728C113.127 48.9841 114.208 49.4007 115.576 49.4007C116.636 49.4007 117.496 49.2472 118.203 48.9183C118.909 48.5894 119.483 48.1728 119.902 47.6247C120.343 47.0984 120.652 46.4406 120.851 45.6951C121.05 44.9496 121.138 44.1383 121.138 43.2613V30.2149H126.126V52.6897ZM134.622 45.4758C134.777 46.923 135.328 47.9316 136.277 48.5237C137.248 49.0937 138.396 49.4007 139.742 49.4007C140.206 49.4007 140.735 49.3569 141.331 49.2911C141.927 49.2253 142.501 49.0718 143.008 48.8745C143.538 48.6771 143.957 48.3702 144.311 47.9755C144.642 47.5808 144.796 47.0765 144.774 46.4406C144.752 45.8047 144.509 45.2785 144.068 44.8838C143.626 44.4672 143.075 44.1602 142.391 43.8971C141.706 43.6559 140.934 43.4367 140.051 43.2613C139.168 43.0858 138.286 42.8885 137.381 42.6912C136.454 42.4938 135.549 42.2307 134.688 41.9457C133.828 41.6606 133.055 41.2659 132.371 40.7616C131.687 40.2792 131.135 39.6434 130.738 38.8759C130.319 38.1085 130.12 37.1656 130.12 36.0255C130.12 34.7976 130.429 33.7889 131.025 32.9557C131.621 32.1225 132.393 31.4647 133.298 30.9604C134.225 30.4561 135.24 30.1053 136.366 29.886C137.491 29.6886 138.573 29.579 139.588 29.579C140.757 29.579 141.883 29.7106 142.942 29.9518C144.002 30.193 144.973 30.5876 145.833 31.1577C146.694 31.7059 147.4 32.4295 147.974 33.3065C148.548 34.1836 148.901 35.258 149.055 36.5078H143.847C143.604 35.3238 143.075 34.5125 142.214 34.1178C141.353 33.7012 140.36 33.5039 139.257 33.5039C138.904 33.5039 138.484 33.5258 137.999 33.5916C137.513 33.6574 137.072 33.767 136.63 33.9205C136.211 34.074 135.858 34.3152 135.549 34.6221C135.262 34.9291 135.108 35.3238 135.108 35.8281C135.108 36.4421 135.328 36.9244 135.748 37.2972C136.167 37.67 136.719 37.9769 137.403 38.24C138.087 38.4812 138.859 38.7005 139.742 38.8759C140.625 39.0513 141.53 39.2487 142.457 39.446C143.362 39.6433 144.244 39.9065 145.127 40.1915C146.01 40.4766 146.782 40.8712 147.466 41.3756C148.151 41.8799 148.702 42.4938 149.122 43.2393C149.541 43.9848 149.762 44.9277 149.762 46.024C149.762 47.3615 149.453 48.4798 148.835 49.4226C148.217 50.3436 147.422 51.111 146.451 51.6811C145.48 52.2512 144.377 52.6897 143.185 52.9528C141.993 53.216 140.802 53.3475 139.632 53.3475C138.197 53.3475 136.873 53.194 135.659 52.8651C134.446 52.5362 133.386 52.0538 132.504 51.418C131.621 50.7602 130.915 49.9489 130.407 48.9841C129.899 48.0193 129.635 46.8572 129.59 45.5197H134.622V45.4758ZM151.086 30.193H154.86V23.4395H159.847V30.193H164.349V33.8986H159.847V45.9144C159.847 46.4406 159.869 46.8792 159.913 47.2738C159.958 47.6466 160.068 47.9755 160.222 48.2386C160.377 48.5017 160.62 48.6991 160.951 48.8306C161.282 48.9622 161.701 49.028 162.275 49.028C162.628 49.028 162.981 49.028 163.334 49.006C163.687 48.9841 164.04 48.9403 164.394 48.8526V52.6897C163.842 52.7555 163.29 52.7994 162.782 52.8651C162.253 52.9309 161.723 52.9528 161.171 52.9528C159.847 52.9528 158.788 52.8213 157.993 52.5801C157.199 52.3389 156.559 51.9661 156.118 51.4838C155.654 51.0014 155.367 50.4093 155.191 49.6858C155.036 48.9622 154.926 48.129 154.904 47.2081V33.9424H151.13V30.193H151.086ZM167.88 30.193H172.603V33.2408H172.692C173.398 31.9252 174.369 31.0042 175.627 30.4342C176.885 29.8641 178.231 29.579 179.71 29.579C181.497 29.579 183.042 29.886 184.366 30.5219C185.69 31.1358 186.794 31.9909 187.677 33.0873C188.559 34.1836 189.199 35.4554 189.641 36.9025C190.082 38.3497 190.303 39.9065 190.303 41.551C190.303 43.0639 190.104 44.533 189.707 45.9363C189.31 47.3615 188.714 48.6114 187.919 49.7077C187.125 50.804 186.11 51.6592 184.874 52.317C183.638 52.9748 182.203 53.3037 180.526 53.3037C179.798 53.3037 179.07 53.2379 178.341 53.1063C177.613 52.9748 176.907 52.7555 176.245 52.4705C175.583 52.1854 174.943 51.8127 174.391 51.3522C173.817 50.8917 173.354 50.3655 172.956 49.7735H172.868V60.9999H167.88V30.193ZM185.315 41.4633C185.315 40.4546 185.183 39.4679 184.918 38.5032C184.653 37.5384 184.256 36.7052 183.726 35.9597C183.197 35.2142 182.534 34.6221 181.762 34.1836C180.968 33.7451 180.063 33.5039 179.047 33.5039C176.951 33.5039 175.362 34.2275 174.303 35.6746C173.243 37.1218 172.714 39.0513 172.714 41.4633C172.714 42.6035 172.846 43.6559 173.133 44.6207C173.42 45.5855 173.817 46.4187 174.391 47.1203C174.943 47.822 175.605 48.3702 176.377 48.7648C177.15 49.1814 178.054 49.3788 179.07 49.3788C180.217 49.3788 181.166 49.1376 181.961 48.6771C182.755 48.2167 183.395 47.6027 183.903 46.8792C184.41 46.1336 184.785 45.3004 185.006 44.3576C185.205 43.4147 185.315 42.45 185.315 41.4633ZM194.121 21.6196H199.108V26.3119H194.121V21.6196ZM194.121 30.193H199.108V52.6897H194.121V30.193ZM203.566 21.6196H208.554V52.6897H203.566V21.6196ZM223.848 53.3037C222.038 53.3037 220.427 52.9967 219.015 52.4047C217.602 51.8127 216.411 50.9794 215.418 49.9489C214.447 48.8964 213.696 47.6466 213.189 46.1994C212.681 44.7523 212.416 43.1516 212.416 41.4194C212.416 39.7091 212.681 38.1304 213.189 36.6833C213.696 35.2361 214.447 33.9863 215.418 32.9338C216.389 31.8813 217.602 31.07 219.015 30.478C220.427 29.886 222.038 29.579 223.848 29.579C225.658 29.579 227.269 29.886 228.681 30.478C230.094 31.07 231.285 31.9032 232.278 32.9338C233.249 33.9863 234 35.2361 234.507 36.6833C235.015 38.1304 235.28 39.7091 235.28 41.4194C235.28 43.1516 235.015 44.7523 234.507 46.1994C234 47.6466 233.249 48.8964 232.278 49.9489C231.307 51.0014 230.094 51.8127 228.681 52.4047C227.269 52.9967 225.658 53.3037 223.848 53.3037ZM223.848 49.3788C224.951 49.3788 225.923 49.1376 226.739 48.6771C227.556 48.2167 228.218 47.6027 228.747 46.8572C229.277 46.1117 229.652 45.2566 229.917 44.3137C230.16 43.3709 230.292 42.4061 230.292 41.4194C230.292 40.4546 230.16 39.5118 229.917 38.547C229.674 37.5822 229.277 36.749 228.747 36.0035C228.218 35.258 227.556 34.666 226.739 34.2055C225.923 33.7451 224.951 33.5039 223.848 33.5039C222.745 33.5039 221.773 33.7451 220.957 34.2055C220.14 34.666 219.478 35.2799 218.949 36.0035C218.419 36.749 218.044 37.5822 217.779 38.547C217.536 39.5118 217.404 40.4546 217.404 41.4194C217.404 42.4061 217.536 43.3709 217.779 44.3137C218.022 45.2566 218.419 46.1117 218.949 46.8572C219.478 47.6027 220.14 48.2167 220.957 48.6771C221.773 49.1595 222.745 49.3788 223.848 49.3788ZM236.736 30.193H240.51V23.4395H245.498V30.193H250V33.8986H245.498V45.9144C245.498 46.4406 245.52 46.8792 245.564 47.2738C245.608 47.6466 245.719 47.9755 245.873 48.2386C246.028 48.5017 246.27 48.6991 246.601 48.8306C246.932 48.9622 247.352 49.028 247.926 49.028C248.279 49.028 248.632 49.028 248.985 49.006C249.338 48.9841 249.691 48.9403 250.044 48.8526V52.6897C249.492 52.7555 248.941 52.7994 248.433 52.8651C247.903 52.9309 247.374 52.9528 246.822 52.9528C245.498 52.9528 244.439 52.8213 243.644 52.5801C242.85 52.3389 242.21 51.9661 241.768 51.4838C241.305 51.0014 241.018 50.4093 240.841 49.6858C240.687 48.9622 240.576 48.129 240.554 47.2081V33.9424H236.781V30.193H236.736Z" fill="white"/>
<path d="M59.8738 21.6197H37.0101L29.9479 0L22.8637 21.6197L0 21.5978L18.5161 34.973L11.4318 56.5708L29.9479 43.2175L48.4419 56.5708L41.3798 34.973L59.8738 21.6197Z" fill="#00B67A"/>
<path d="M42.9687 39.8628L41.3798 34.9731L29.9479 43.2176L42.9687 39.8628Z" fill="#005128"/>
</g>
<defs>
<clipPath id="clip0_297_478">
<rect width="250" height="61" fill="white"/>
</clipPath>
</defs>
</svg>
